<svg id="Content" xmlns="http://www.w3.org/2000/svg" viewBox="0 0 500 170">
  <defs>
    <style>
      .cls-1 {
        fill: #fff;
      }
    </style>
  </defs>
  <title>2019_RA_Logo</title>
  <g>
    <path class="cls-1" d="M265.38,98C255.75,98,250,103,250,111.47S255.75,125,265.38,125s15.42-5,15.42-13.48S275,98,265.38,98Zm0,19.51c-2.84,0-4.74-2.43-4.74-6s1.9-6.09,4.74-6.09,4.73,2.39,4.73,6.09S268.3,117.47,265.38,117.47Z"/>
    <path class="cls-1" d="M386.84,120.58a3.74,3.74,0,0,0,3.71,3.76h7.2V98.61H386.84Z"/>
    <rect class="cls-1" x="386.84" y="90.17" width="10.91" height="5.32"/>
    <path class="cls-1" d="M417.48,98c-9.63,0-15.37,5.05-15.37,13.51S407.85,125,417.48,125s15.42-5,15.42-13.48S427.14,98,417.48,98Zm0,19.51c-2.83,0-4.74-2.43-4.74-6s1.91-6.09,4.74-6.09,4.74,2.39,4.74,6.09S420.4,117.47,417.48,117.47Z"/>
    <path class="cls-1" d="M213.59,57.14c-9.63,0-15.38,5.06-15.38,13.52S204,84.13,213.59,84.13,229,79.1,229,70.66,223.24,57.14,213.59,57.14Zm0,19.51c-2.84,0-4.74-2.42-4.74-6s1.9-6.08,4.74-6.08,4.73,2.39,4.73,6.08S216.51,76.65,213.59,76.65Z"/>
    <path class="cls-1" d="M365.94,76.93c-1.17,0-6.05.29-10.36.29s-6-.46-6.86-3.31h17.46a.82.82,0,0,0,.82-.82v-2c0-8.86-4.7-13.82-13.69-13.94-10.05-.12-14.76,5.14-14.76,13.1,0,8.73,4.61,13.94,15.57,13.94,7.85,0,11.4-3.19,12.09-6.88C366.24,77.17,366.08,76.93,365.94,76.93ZM353.36,63.11c2.89,0,4.2,2.38,4.2,5.32h-9C348.6,65.45,349.61,63.11,353.36,63.11Z"/>
    <path class="cls-1" d="M381.65,49.36h-7.1a3.73,3.73,0,0,0-3.7,3.75V83.52h10.8Z"/>
    <path class="cls-1" d="M244.49,84a39.51,39.51,0,0,0,10.83-.87.94.94,0,0,0,.75-.93V75.86s-2,.22-6.74.22c-4.11,0-6.66-2.12-6.66-5.54s2.4-5.58,6.27-5.58a38.58,38.58,0,0,1,7.13.55V59.16a1,1,0,0,0-.74-.94,43.29,43.29,0,0,0-10.26-1.08c-8,.48-13,5.16-13,13.45C232.08,78.45,236.78,83.23,244.49,84Z"/>
    <path class="cls-1" d="M352,98.52v3.33a8.43,8.43,0,0,0-7.48-3.94c-8.14,0-12.74,5-12.74,13.47v.1c0,8.43,4.6,13.47,12.74,13.47a8.42,8.42,0,0,0,7.48-4v.57a2.74,2.74,0,0,0,2.73,2.76h7.56V98.52H352Zm-4.74,19c-2.83,0-4.73-2.43-4.73-6s1.9-6,4.73-6,4.74,2.32,4.74,6S350.13,117.47,347.21,117.47Z"/>
    <path class="cls-1" d="M326.89,57.8l-3.05,16.84-3.4-16.84H308.16l-3.41,16.84-3-16.84H291.48l-10.65-.08a4.7,4.7,0,0,0-4,2.51L270.77,69V49.27h-6.59a3.74,3.74,0,0,0-3.7,3.76V83.44h10.29V70.64l7.07,10.28a4.69,4.69,0,0,0,4,2.52l10.66.09L282.07,69.78l9.41-12,6.14,25.7h11.49a2.62,2.62,0,0,0,2.57-2.21l2.2-15.25h.84l2.2,15.25a2.62,2.62,0,0,0,2.57,2.21H331l6.15-25.72Z"/>
    <path class="cls-1" d="M216.16,109.74c0,4.41-1.42,6.65-4.2,6.65-1.73,0-3.5-.58-3.5-4.82v-13H198.17V113.3c0,7.39,3.69,11.46,10.39,11.46a11.28,11.28,0,0,0,8.38-3.4v.2a2.77,2.77,0,0,0,2.74,2.78h6.77V98.61H216.16Z"/>
    <path class="cls-1" d="M318.78,98a10.79,10.79,0,0,0-8.81,4.34A9.46,9.46,0,0,0,301.54,98a10.86,10.86,0,0,0-8,3.38V98.61h-9.4v25.72h10.19V111.94c0-3.32,1.51-5.47,3.85-5.47,1.66,0,3.2.56,3.2,4.67v13.19h10.24V111.94c0-3.38,1.46-5.47,3.8-5.47,1.67,0,3.21.56,3.21,4.67v13.19h10.19V109.41C328.82,102.05,325.26,98,318.78,98Z"/>
    <path class="cls-1" d="M454.14,98a11.31,11.31,0,0,0-8.4,3.44V98.61h-9.5v25.72h10.29V111.94c0-3.41,1.65-5.61,4.2-5.61,1.73,0,3.5.57,3.5,4.81v13.19h10.24V109.41C464.47,102,460.8,98,454.14,98Z"/>
    <path class="cls-1" d="M376.89,90.17H366.6v30.41a3.73,3.73,0,0,0,3.7,3.76h6.59V106.19h6.22V98.61h-6.22Z"/>
    <path class="cls-1" d="M397.62,49.36h-7.1a3.72,3.72,0,0,0-3.7,3.75V83.52h10.8Z"/>
    <path class="cls-1" d="M173.45,90.17a2.71,2.71,0,0,0-2.52,1.7l-13,32.46h10.78l2.41-6.45h12.39l1.31,3.74h0a4.52,4.52,0,0,0,4,2.7h8.44L183.71,90.17Zm.48,20.1,3.54-9.65,3.4,9.65Z"/>
    <path class="cls-1" d="M242,90.19H231.09V120.6a3.73,3.73,0,0,0,3.71,3.75H242V106.21h6.21V98.63H242Z"/>
    <path class="cls-1" d="M193.23,70.37a7.51,7.51,0,0,0-4.79-2.83v-.09c4.78-.57,7.61-3.83,7.61-9.08,0-6.57-4.69-9.12-12.31-9.12H165.29V83.46h10.9V71h3c1.5,0,3,.24,3.45,1.77l3.08,9a2.05,2.05,0,0,0,2,1.73H197.8L194,72A4.34,4.34,0,0,0,193.23,70.37Zm-12.58-6.5h-4.31V56.6h4.47c2.23,0,4.34.45,4.34,3.53C185.15,63.57,182.93,63.87,180.65,63.87Z"/>
  </g>
  <g>
    <path class="cls-1" d="M63.93,66.23l39.61-29.35a.73.73,0,0,0-.43-1.32H70.64a14.2,14.2,0,0,0-10,4.16L39.91,60.4a14.2,14.2,0,0,0-4.16,10V99.69a14.23,14.23,0,0,0,4.16,10L60.59,130.4a14.2,14.2,0,0,0,10,4.16H98.77a.73.73,0,0,0,.31-1.39l-55.9-26.35a6.66,6.66,0,0,1-3.83-6v-14a4.62,4.62,0,0,1,1.88-3.71l8.05-6V66.23Z"/>
    <polygon class="cls-1" points="102.46 77.55 98.64 87.95 106.13 87.95 102.46 77.55"/>
    <path class="cls-1" d="M70.31,78c0-3.33-2.27-3.81-4.68-3.81H60.81V82h4.64C67.91,82,70.31,81.68,70.31,78Z"/>
    <path class="cls-1" d="M131.16,61,111.91,41.7a3.16,3.16,0,0,0-4-.36l-37.06,25c7,.44,11.27,3.29,11.27,9.77,0,5.66-3.06,9.18-8.22,9.8V86A8.18,8.18,0,0,1,79,89a4.64,4.64,0,0,1,.86,1.79l2.93,8.87,12.6-31.55a2.9,2.9,0,0,1,2.71-1.83h11.06l14.72,36.85h-9.11a4.86,4.86,0,0,1-4.36-2.93h0l-1.42-4H95.65l-2.6,7h-20a2.22,2.22,0,0,1-2.16-1.87L67.6,91.61c-.46-1.66-2.1-1.92-3.72-1.92H60.65v13.44H49.28V80.79l-6.8,4.58a2.28,2.28,0,0,0-1,1.88v14.22a2.28,2.28,0,0,0,1.38,2.1L107,130.41a3.18,3.18,0,0,0,3.49-.66l20.66-20.57a12.32,12.32,0,0,0,3.63-8.73V69.66A12.31,12.31,0,0,0,131.16,61Z"/>
  </g>
</svg>
