<svg width="22.867" height="22.796" viewBox="0 0 22.867 22.796" xmlns="http://www.w3.org/2000/svg" xmlns:xlink="http://www.w3.org/1999/xlink" overflow="hidden"><path d="M4.83 27.141C5.18665 27.4829 5.74935 27.4829 6.106 27.141L15.995 17.306 25.895 27.132C26.2471 27.4846 26.8184 27.4851 27.171 27.133 27.5236 26.7809 27.5241 26.2096 27.172 25.857L17.272 16.03 27.172 6.14C27.5244 5.78764 27.5244 5.21636 27.172 4.864 26.8196 4.51164 26.2484 4.51164 25.896 4.864L15.996 14.754 6.106 4.865C5.75309 4.51292 5.18158 4.51359 4.8295 4.8665 4.47742 5.21941 4.47809 5.79092 4.831 6.143L14.718 16.031 4.83 25.866C4.47792 26.2169 4.47693 26.7867 4.82779 27.1388 4.82853 27.1395 4.82926 27.1403 4.83 27.141Z" fill="#FFFFFF" transform="translate(-4.567 -4.602)"/></svg>