<svg viewBox="0 0 32 32" xmlns="http://www.w3.org/2000/svg" xmlns:xlink="http://www.w3.org/1999/xlink" overflow="hidden"><path d="M29.38 14.677 17.232 2.811C16.906 2.493 16.453 2.334 16 2.333 15.547 2.333 15.094 2.492 14.768 2.81L2.62 14.677C2.132 15.153 1.998 15.829 2.271 16.439 2.544 17.05 3.15 17.43 3.851 17.43L5.519 17.425 5.519 27.717C5.519 28.79 6.441 29.662 7.574 29.662L13.882 29.667 14.012 29.667 14.012 19.914C14.012 19.582 14.296 19.313 14.647 19.313L17.354 19.313C17.705 19.313 17.989 19.582 17.989 19.914L17.989 29.667 18.119 29.667 24.427 29.662C25.56 29.662 26.482 28.79 26.482 27.717L26.482 17.424 28.15 17.429C28.851 17.429 29.457 17.05 29.73 16.438 30.002 15.828 29.869 15.153 29.38 14.677ZM28.348 15.886C28.3149 15.9655 28.235 16.0153 28.149 16.01L26.458 16.005 26.066 16.005C26.066 16.005 24.981 15.751 24.981 17.049L24.981 27.717C24.981 28.007 24.732 28.242 24.426 28.242L19.593 28.247 19.576 28.248C19.583 28.185 19.593 28.124 19.593 28.059L19.593 19.5C19.593 18.614 18.932 17.893 18.118 17.893L13.881 17.893C13.068 17.893 12.406 18.614 12.406 19.5L12.406 28.059C12.406 28.124 12.416 28.185 12.423 28.248L12.406 28.247 7.573 28.242C7.267 28.242 7.018 28.006 7.018 27.717L7.018 17.048C7.018 15.75 5.933 16.004 5.933 16.004L5.542 16.004 3.851 16.01C3.76501 16.0153 3.6851 15.9655 3.652 15.886 3.61517 15.8106 3.63364 15.72 3.697 15.665L15.846 3.798C15.897 3.747 15.948 3.722 16 3.722 16.052 3.722 16.103 3.747 16.154 3.798L28.303 15.664C28.386 15.745 28.373 15.829 28.348 15.886Z" fill="#2D2D2D"/></svg>