<svg viewBox="0 0 32 32" xmlns="http://www.w3.org/2000/svg" xmlns:xlink="http://www.w3.org/1999/xlink" overflow="hidden"><path d="M7.899 9.461 24.101 9.461C24.5428 9.461 24.901 9.10283 24.901 8.661 24.901 8.21917 24.5428 7.861 24.101 7.861L7.899 7.861C7.45717 7.861 7.099 8.21917 7.099 8.661 7.099 9.10283 7.45717 9.461 7.899 9.461ZM24.101 15.195 7.899 15.195C7.45717 15.195 7.099 15.5532 7.099 15.995 7.099 16.4368 7.45717 16.795 7.899 16.795L24.101 16.795C24.5428 16.795 24.901 16.4368 24.901 15.995 24.901 15.5532 24.5428 15.195 24.101 15.195ZM24.101 22.539 7.899 22.539C7.45717 22.539 7.099 22.8972 7.099 23.339 7.099 23.7808 7.45717 24.139 7.899 24.139L24.101 24.139C24.5428 24.139 24.901 23.7808 24.901 23.339 24.901 22.8972 24.5428 22.539 24.101 22.539Z" fill="#2D2D2D"/></svg>