<svg width="31.749" height="30.952" viewBox="0 0 31.749 30.952" xmlns="http://www.w3.org/2000/svg" xmlns:xlink="http://www.w3.org/1999/xlink" overflow="hidden"><path d="M0.125 16C0.121095 24.5433 7.04364 31.4722 15.5869 31.4761 22.6677 31.4793 28.8468 26.6744 30.588 19.811 30.5979 19.708 30.6146 19.6058 30.638 19.505 30.6559 19.436 30.6667 19.3652 30.67 19.294 30.7009 18.9219 30.4244 18.5952 30.0523 18.5643 30.0326 18.5627 30.0128 18.5619 29.993 18.562 29.54 18.562 29.268 18.826 29.178 19.368L29.132 19.498C27.2014 26.9794 19.5714 31.4791 12.0901 29.5485 4.6087 27.6179 0.10893 19.988 2.03956 12.5066 3.97018 5.02522 11.6001 0.525445 19.0815 2.45607 22.8159 3.41977 25.9868 5.88238 27.845 9.262L28.371 10.216 25.523 9.077C25.1272 8.96275 24.7136 9.19103 24.5994 9.58687 24.5455 9.77345 24.5666 9.97368 24.658 10.145 24.7573 10.3259 24.9265 10.4582 25.126 10.511L29.654 12.211C30.0429 12.3222 30.4499 12.105 30.574 11.72L31.843 6.9C31.9512 6.50302 31.717 6.09352 31.3201 5.98535 30.9416 5.88224 30.548 6.09023 30.42 6.461L29.653 9.489 29.179 8.616C25.1125 1.10823 15.7297-1.68147 8.22195 2.38503 3.22633 5.09085 0.117299 10.3187 0.125001 16Z" fill="#CD163F" transform="translate(-0.125 -0.524)"/></svg>