<svg viewBox="0 0 32 32" xmlns="http://www.w3.org/2000/svg" xmlns:xlink="http://www.w3.org/1999/xlink" overflow="hidden"><path d="M29.178 12.069C27.691 6.144 22.336 1.737 15.956 1.737 9.573 1.737 4.214 6.149 2.731 12.079 1.196 12.271 0 13.569 0 15.155L0 19.725C0 21.443 1.398 22.841 3.116 22.841 4.834 22.841 6.232 21.443 6.232 19.725L6.232 15.155C6.22801 13.8445 5.40298 12.6772 4.169 12.236 5.562 7.024 10.311 3.17 15.956 3.17 21.61 3.17 26.365 7.037 27.749 12.262 26.5572 12.7283 25.7718 13.8762 25.769 15.156L25.769 19.726C25.769 21.067 26.625 22.202 27.815 22.641 26.898 24.226 24.393 27.575 19.729 27.329 19.4196 26.4531 18.593 25.8662 17.664 25.863L14.836 25.863C13.622 25.863 12.635 26.85 12.635 28.064 12.635 29.278 13.622 30.265 14.836 30.265L17.664 30.265C18.634 30.265 19.449 29.631 19.742 28.758 19.897 28.765 20.058 28.781 20.21 28.781 25.823 28.781 28.639 24.169 29.354 22.795 30.8724 22.5642 31.9957 21.2608 32 19.725L32 15.155C32 13.538 30.756 12.22 29.178 12.069ZM4.799 15.155 4.799 19.725C4.799 20.653 4.044 21.408 3.116 21.408 2.188 21.408 1.433 20.653 1.433 19.725L1.433 15.155C1.46505 14.2255 2.24453 13.498 3.17403 13.53 4.05853 13.5605 4.7685 14.2705 4.799 15.155ZM17.664 28.83 14.836 28.83C14.4118 28.8083 14.0856 28.447 14.1072 28.0228 14.1273 27.6289 14.4421 27.3141 14.836 27.294L17.664 27.294C18.0882 27.3157 18.4144 27.677 18.3928 28.1012 18.3727 28.4951 18.0579 28.8099 17.664 28.83ZM30.567 19.725C30.567 20.653 29.812 21.408 28.885 21.408 27.956 21.4069 27.2031 20.654 27.202 19.725L27.202 15.155C27.202 14.227 27.957 13.473 28.885 13.473 29.813 13.473 30.567 14.228 30.567 15.155L30.567 19.725Z" fill="#2D2D2D"/></svg>